PathFileType	4	(X/Y/Z)	 3.0Hz3min.trc
DataRate	CameraRate	NumFrames	NumMarkers	Units	OrigDataRate	OrigDataStartFrame	OrigNumFrames
200	200	11	35	m	200	751	1000
Frame#	Time	C7			LSH			RSH			MAN			RASI			LASI			HIPR			HIPL			RPSI			LPSI			COX			RTHI1			RTHI2			RTHI3			RTHI4			RSHA1			RSHA2			RSHA3			RSHA4			RHEEL			RMET5			RMET1			RTOE			LTHI1			LTHI2			LTHI3			LTHI4			LSHA1			LSHA2			LSHA3			LSHA4			LHEEL			LMET5			LMET1			LTOE			
		X1	Y1	Z1	X2	Y2	Z2	X3	Y3	Z3	X4	Y4	Z4	X5	Y5	Z5	X6	Y6	Z6	X7	Y7	Z7	X8	Y8	Z8	X9	Y9	Z9	X10	Y10	Z10	X11	Y11	Z11	X12	Y12	Z12	X13	Y13	Z13	X14	Y14	Z14	X15	Y15	Z15	X16	Y16	Z16	X17	Y17	Z17	X18	Y18	Z18	X19	Y19	Z19	X20	Y20	Z20	X21	Y21	Z21	X22	Y22	Z22	X23	Y23	Z23	X24	Y24	Z24	X25	Y25	Z25	X26	Y26	Z26	X27	Y27	Z27	X28	Y28	Z28	X29	Y29	Z29	X30	Y30	Z30	X31	Y31	Z31	X32	Y32	Z32	X33	Y33	Z33	X34	Y34	Z34	X35	Y35	Z35	
751	3.7550	-0.293223	1.438851	-0.590771	-0.216053	1.433875	-0.755402	-0.248710	1.416901	-0.417776	-0.170506	1.397790	-0.582844	-0.147492	0.996929	-0.473955	-0.134961	0.993941	-0.687182	-0.215453	1.042250	-0.441343	-0.184370	1.050999	-0.721303	-0.307018	1.034053	-0.536213	-0.298609	1.033419	-0.641938	-0.305855	1.040836	-0.591988	-0.267394	0.796563	-0.419403	-0.248863	0.739877	-0.413049	-0.189054	0.757304	-0.395042	-0.200132	0.817998	-0.397938	-0.280537	0.392168	-0.394936	-0.292570	0.351052	-0.400334	-0.232952	0.340124	-0.394175	-0.224820	0.379868	-0.393768	-0.365348	0.126823	-0.449519	-0.237193	0.053779	-0.381825	-0.192998	0.056029	-0.445900	-0.171180	0.048013	-0.442417	-0.225341	0.772453	-0.765759	-0.195894	0.718393	-0.767333	-0.136196	0.744290	-0.762754	-0.158438	0.799773	-0.761462	-0.275280	0.369069	-0.786871	-0.291434	0.331729	-0.786272	-0.231477	0.312963	-0.786275	-0.222617	0.356105	-0.786859	-0.367992	0.121238	-0.756255	-0.228303	0.056847	-0.802865	-0.195484	0.060995	-0.737324	-0.172955	0.052455	-0.739877	
752	3.7600	-0.293263	1.436651	-0.590775	-0.216096	1.431098	-0.755882	-0.249016	1.414101	-0.417264	-0.170597	1.395497	-0.582820	-0.147981	0.994951	-0.473644	-0.135129	0.992027	-0.687139	-0.216292	1.039768	-0.441235	-0.184891	1.048724	-0.721441	-0.307631	1.031201	-0.536247	-0.299033	1.030705	-0.641818	-0.306301	1.038023	-0.591978	-0.267130	0.794306	-0.419305	-0.248320	0.737724	-0.413090	-0.188515	0.755322	-0.395403	-0.199831	0.815958	-0.398198	-0.280088	0.390557	-0.395028	-0.292391	0.349495	-0.400482	-0.232822	0.338198	-0.394594	-0.224430	0.377885	-0.394138	-0.366736	0.125802	-0.449928	-0.238649	0.051887	-0.383105	-0.194759	0.054172	-0.447407	-0.172931	0.046033	-0.444115	-0.224678	0.770171	-0.765726	-0.195123	0.716162	-0.766874	-0.135517	0.742179	-0.761903	-0.157861	0.797630	-0.760982	-0.274400	0.367281	-0.786977	-0.290723	0.330022	-0.786455	-0.230848	0.311002	-0.785960	-0.221797	0.354098	-0.786543	-0.368569	0.120102	-0.756567	-0.229107	0.054822	-0.802342	-0.196537	0.058880	-0.736706	-0.174050	0.050202	-0.739148	
753	3.7650	-0.293283	1.434223	-0.590791	-0.216082	1.428086	-0.756325	-0.249247	1.411083	-0.416800	-0.170615	1.392906	-0.582798	-0.148472	0.992730	-0.473329	-0.135303	0.989881	-0.687091	-0.217141	1.037041	-0.441118	-0.185392	1.046235	-0.721568	-0.308219	1.028068	-0.536288	-0.299459	1.027723	-0.641656	-0.306733	1.034951	-0.591964	-0.266793	0.791865	-0.419172	-0.247712	0.735373	-0.413091	-0.187911	0.753138	-0.395757	-0.199437	0.813720	-0.398468	-0.279627	0.388627	-0.395141	-0.292163	0.347682	-0.400647	-0.232633	0.336024	-0.395041	-0.224003	0.375647	-0.394530	-0.368022	0.124638	-0.450394	-0.240270	0.049414	-0.384520	-0.196597	0.051775	-0.449048	-0.174790	0.043491	-0.445924	-0.224011	0.767775	-0.765744	-0.194360	0.713816	-0.766491	-0.134849	0.739933	-0.761060	-0.157281	0.795359	-0.760479	-0.273473	0.365233	-0.787088	-0.289957	0.328049	-0.786627	-0.230163	0.308782	-0.785612	-0.220930	0.351835	-0.786220	-0.369091	0.118857	-0.756841	-0.230085	0.052216	-0.801659	-0.197731	0.056230	-0.735946	-0.175314	0.047374	-0.738271	
754	3.7700	-0.293282	1.431569	-0.590821	-0.216000	1.424853	-0.756722	-0.249383	1.407868	-0.416396	-0.170529	1.390032	-0.582797	-0.148959	0.990262	-0.473013	-0.135474	0.987492	-0.687037	-0.217991	1.034066	-0.440998	-0.185865	1.043526	-0.721677	-0.308773	1.024674	-0.536338	-0.299877	1.024485	-0.641461	-0.307134	1.031622	-0.591952	-0.266392	0.789229	-0.419002	-0.247046	0.732821	-0.413068	-0.187259	0.750732	-0.396075	-0.198973	0.811274	-0.398725	-0.279136	0.386384	-0.395244	-0.291890	0.345622	-0.400820	-0.232390	0.333603	-0.395509	-0.223547	0.373164	-0.394927	-0.369209	0.123290	-0.450915	-0.242053	0.046391	-0.386006	-0.198426	0.048997	-0.450867	-0.176631	0.040598	-0.447904	-0.223339	0.765253	-0.765812	-0.193600	0.711341	-0.766205	-0.134190	0.737546	-0.760261	-0.156696	0.792949	-0.759964	-0.272516	0.362917	-0.787204	-0.289154	0.325809	-0.786781	-0.229442	0.306307	-0.785253	-0.220035	0.349328	-0.785904	-0.369546	0.117436	-0.757113	-0.231148	0.049113	-0.800836	-0.199008	0.053149	-0.734941	-0.176675	0.044106	-0.737121	
755	3.7750	-0.293267	1.428693	-0.590861	-0.215839	1.421405	-0.757066	-0.249437	1.404460	-0.416050	-0.170481	1.386885	-0.582775	-0.149431	0.987543	-0.472701	-0.135633	0.984855	-0.686978	-0.218817	1.030839	-0.440881	-0.186300	1.040591	-0.721768	-0.309287	1.021024	-0.536391	-0.300284	1.020997	-0.641235	-0.307498	1.028032	-0.591947	-0.265944	0.786388	-0.418807	-0.246374	0.730048	-0.412990	-0.186589	0.748088	-0.396325	-0.198461	0.808601	-0.398947	-0.278635	0.383868	-0.395333	-0.291585	0.343282	-0.400971	-0.232115	0.330937	-0.395970	-0.223083	0.370432	-0.395303	-0.370321	0.121669	-0.451505	-0.243934	0.043000	-0.387350	-0.200084	0.046053	-0.452760	-0.178272	0.037573	-0.450032	-0.222660	0.762592	-0.765944	-0.192838	0.708719	-0.766032	-0.133537	0.735000	-0.759535	-0.156114	0.790386	-0.759461	-0.271550	0.360350	-0.787322	-0.288340	0.323316	-0.786942	-0.228710	0.303583	-0.784910	-0.219140	0.346579	-0.785613	-0.369962	0.115764	-0.757391	-0.232161	0.045719	-0.800020	-0.200258	0.049860	-0.733681	-0.177994	0.040654	-0.735641	
756	3.7800	-0.293265	1.425645	-0.590923	-0.215593	1.417753	-0.757350	-0.249404	1.400871	-0.415764	-0.170422	1.383476	-0.582753	-0.149870	0.984570	-0.472399	-0.135779	0.981963	-0.686913	-0.219619	1.027377	-0.440768	-0.186689	1.037423	-0.721840	-0.309756	1.017137	-0.536454	-0.300654	1.017261	-0.641047	-0.307824	1.024208	-0.591947	-0.265473	0.783324	-0.418581	-0.245719	0.727039	-0.412851	-0.185930	0.745194	-0.396486	-0.197931	0.805687	-0.399109	-0.278153	0.381064	-0.395415	-0.291282	0.340634	-0.401115	-0.231834	0.328011	-0.396420	-0.222632	0.367449	-0.395649	-0.371393	0.119698	-0.452169	-0.245750	0.039486	-0.388317	-0.201451	0.043200	-0.454530	-0.179551	0.034707	-0.452114	-0.221980	0.759766	-0.766144	-0.192077	0.705927	-0.765983	-0.132887	0.732278	-0.758906	-0.155538	0.787649	-0.758991	-0.270610	0.357544	-0.787442	-0.287545	0.320584	-0.787108	-0.227998	0.300629	-0.784591	-0.218275	0.343600	-0.785350	-0.370393	0.113757	-0.757669	-0.232970	0.042278	-0.799395	-0.201330	0.046622	-0.732318	-0.179120	0.037293	-0.733958	
757	3.7850	-0.293278	1.422422	-0.591003	-0.215226	1.413914	-0.757570	-0.249296	1.397110	-0.415535	-0.170337	1.379808	-0.582734	-0.150271	0.981338	-0.472107	-0.135911	0.978825	-0.686842	-0.220384	1.023674	-0.440654	-0.187025	1.034023	-0.721899	-0.310190	1.013032	-0.536524	-0.300996	1.013291	-0.640906	-0.308111	1.020167	-0.591954	-0.265008	0.780040	-0.418333	-0.245108	0.723794	-0.412659	-0.185314	0.742048	-0.396533	-0.197421	0.802528	-0.399189	-0.277719	0.377958	-0.395483	-0.291023	0.337696	-0.401263	-0.231597	0.324826	-0.396849	-0.222240	0.364213	-0.395958	-0.372500	0.117353	-0.452937	-0.247402	0.036105	-0.388718	-0.202436	0.040724	-0.456038	-0.180337	0.032307	-0.454058	-0.221307	0.756748	-0.766415	-0.191322	0.702937	-0.766058	-0.132245	0.729359	-0.758392	-0.154977	0.784709	-0.758578	-0.269739	0.354498	-0.787556	-0.286814	0.317617	-0.787274	-0.227348	0.297434	-0.784290	-0.217480	0.340393	-0.785110	-0.370918	0.111397	-0.757907	-0.233549	0.038997	-0.799158	-0.202149	0.043684	-0.731014	-0.179958	0.034298	-0.732199	
758	3.7900	-0.293293	1.418977	-0.591084	-0.214756	1.409916	-0.757733	-0.249117	1.393169	-0.415361	-0.170235	1.375900	-0.582719	-0.150624	0.977854	-0.471828	-0.136028	0.975446	-0.686768	-0.221097	1.019742	-0.440531	-0.187300	1.030392	-0.721955	-0.310606	1.008732	-0.536602	-0.301317	1.009110	-0.640823	-0.308372	1.015930	-0.591972	-0.264585	0.776519	-0.418054	-0.244566	0.720301	-0.412407	-0.184770	0.738634	-0.396461	-0.196965	0.799100	-0.399168	-0.277377	0.374634	-0.395514	-0.290853	0.334465	-0.401410	-0.231462	0.321379	-0.397265	-0.221957	0.360730	-0.396223	-0.373735	0.114652	-0.453778	-0.248855	0.033113	-0.388436	-0.203019	0.038877	-0.457099	-0.180586	0.030590	-0.455703	-0.220646	0.753518	-0.766765	-0.190579	0.699737	-0.766256	-0.131616	0.726221	-0.758007	-0.154437	0.781551	-0.758240	-0.268989	0.351213	-0.787653	-0.286198	0.314416	-0.787432	-0.226810	0.294010	-0.783994	-0.216806	0.336962	-0.784879	-0.371640	0.108745	-0.758111	-0.233951	0.036113	-0.799454	-0.202699	0.041300	-0.729913	-0.180463	0.031919	-0.730521	
759	3.7950	-0.293319	1.415317	-0.591163	-0.214220	1.405783	-0.757850	-0.248881	1.389054	-0.415236	-0.170133	1.371770	-0.582698	-0.150920	0.974131	-0.471568	-0.136134	0.971848	-0.686696	-0.221744	1.015599	-0.440382	-0.187510	1.026532	-0.722025	-0.311009	1.004256	-0.536692	-0.301636	1.004740	-0.640806	-0.308610	1.011508	-0.591993	-0.264226	0.772747	-0.417751	-0.244121	0.716548	-0.412091	-0.184326	0.734959	-0.396279	-0.196592	0.795408	-0.399040	-0.277206	0.371120	-0.395532	-0.290849	0.330951	-0.401595	-0.231494	0.317690	-0.397643	-0.221848	0.357008	-0.396435	-0.375132	0.111677	-0.454598	-0.250047	0.030701	-0.387497	-0.203264	0.037636	-0.457516	-0.180435	0.029442	-0.456806	-0.220003	0.750060	-0.767199	-0.189857	0.696307	-0.766570	-0.131010	0.722845	-0.757745	-0.153922	0.778151	-0.757990	-0.268418	0.347731	-0.787724	-0.285764	0.311022	-0.787582	-0.226454	0.290391	-0.783711	-0.216315	0.333327	-0.784655	-0.372644	0.105910	-0.758302	-0.234243	0.033809	-0.800335	-0.203028	0.039621	-0.729284	-0.180672	0.030258	-0.729237	
760	3.8000	-0.293364	1.411449	-0.591244	-0.213638	1.401540	-0.757931	-0.248548	1.384797	-0.415173	-0.169957	1.367433	-0.582694	-0.151153	0.970184	-0.471325	-0.136233	0.968063	-0.686634	-0.222313	1.011272	-0.440190	-0.187661	1.022448	-0.722128	-0.311423	0.999642	-0.536795	-0.301974	1.000208	-0.640860	-0.308846	1.006956	-0.592017	-0.263951	0.768718	-0.417429	-0.243774	0.712540	-0.411751	-0.183988	0.731027	-0.396004	-0.196324	0.791456	-0.398813	-0.277283	0.367408	-0.395566	-0.291077	0.327241	-0.401822	-0.231759	0.313805	-0.397978	-0.221988	0.353088	-0.396588	-0.376691	0.108587	-0.455302	-0.250981	0.028838	-0.386198	-0.203403	0.036905	-0.457381	-0.180123	0.028796	-0.457289	-0.219382	0.746348	-0.767693	-0.189161	0.692629	-0.766969	-0.130428	0.719218	-0.757594	-0.153424	0.774495	-0.757846	-0.268101	0.344115	-0.787761	-0.285589	0.307498	-0.787686	-0.226366	0.286627	-0.783455	-0.216073	0.329545	-0.784451	-0.373938	0.103026	-0.758501	-0.234574	0.032031	-0.801607	-0.203256	0.038562	-0.729223	-0.180727	0.029209	-0.728527	
761	3.8050	-0.293427	1.407378	-0.591323	-0.213038	1.397210	-0.757995	-0.248141	1.380414	-0.415155	-0.169726	1.362912	-0.582695	-0.151332	0.966048	-0.471093	-0.136329	0.964128	-0.686595	-0.222797	1.006777	-0.439936	-0.187759	1.018152	-0.722281	-0.311878	0.994915	-0.536897	-0.302368	0.995545	-0.640948	-0.309105	1.002282	-0.592045	-0.263772	0.764445	-0.417095	-0.243527	0.708288	-0.411399	-0.183766	0.726856	-0.395659	-0.196171	0.787257	-0.398495	-0.277661	0.363584	-0.395618	-0.291579	0.323425	-0.402081	-0.232307	0.309811	-0.398230	-0.222424	0.349057	-0.396654	-0.378397	0.105482	-0.455831	-0.251830	0.027400	-0.384860	-0.203556	0.036547	-0.456970	-0.179824	0.028492	-0.457430	-0.218780	0.742379	-0.768235	-0.188488	0.688705	-0.767421	-0.129866	0.715338	-0.757538	-0.152940	0.770580	-0.757810	-0.268090	0.340470	-0.787751	-0.285739	0.303949	-0.787727	-0.226612	0.282815	-0.783264	-0.216140	0.325705	-0.784302	-0.375473	0.100215	-0.758710	-0.235120	0.030680	-0.803014	-0.203552	0.037992	-0.729531	-0.180782	0.028632	-0.728245	
